<svg width="50" height="50" viewBox="0 0 50 50" fill="none" xmlns="http://www.w3.org/2000/svg">
<path fill-rule="evenodd" clip-rule="evenodd" d="M15 0C6.71573 0 0 6.71573 0 15V35C0 43.2843 6.71573 50 15 50H35C43.2843 50 50 43.2843 50 35V15C50 6.71573 43.2843 0 35 0H15ZM31.7241 25.456H27.0713V38.5653C26.2737 38.6738 25.4656 38.75 24.6376 38.75C23.7216 38.75 22.8293 38.6596 21.9483 38.5263V25.456H17.5V20.7007H21.9483V17.5371C21.9483 12.2991 24.4852 10 28.8125 10C30.8483 10 31.9426 10.1489 32.4721 10.2209L32.5 10.2247V14.3745H29.5486C27.712 14.3745 27.0704 16.1262 27.0704 18.1017V20.7007H32.4546L31.7241 25.456Z" fill="black"/>
</svg>
