<svg width="113" height="80" viewBox="0 0 113 80" fill="none" xmlns="http://www.w3.org/2000/svg">
<circle cx="47" cy="62.6191" r="17" fill="#CC0001"/>
<circle cx="42" cy="56.6191" r="6" fill="black"/>
<circle cx="41" cy="21.6191" r="17" fill="#CC0001"/>
<circle cx="36" cy="15.6191" r="6" fill="black"/>
<circle cx="18" cy="45.6191" r="17" fill="#CC0001"/>
<circle cx="13" cy="39.6191" r="6" fill="black"/>
<path d="M1 66.1191C1 66.1191 8 66.1191 8.84657 64.3095C9.69315 62.4998 10.8597 60.4789 10.8597 60.4789" stroke="black" stroke-width="5"/>
<path d="M87.6846 4.71487C86.3567 4.33688 84.9737 5.10699 84.5957 6.43495C84.2177 7.76292 84.9878 9.14587 86.3158 9.52386L87.6846 4.71487ZM96.0267 17.6201L93.5401 17.3614L93.5401 17.3614L96.0267 17.6201ZM45 42.3176L44.9694 39.8178L45 42.3176ZM98.5133 17.8787C98.8246 14.886 98.2281 12.0515 96.2733 9.67315C94.3815 7.37133 91.4528 5.78744 87.6846 4.71487L86.3158 9.52386C89.5745 10.4514 91.4169 11.6389 92.4105 12.8479C93.3412 13.9803 93.7445 15.3961 93.5401 17.3614L98.5133 17.8787ZM34.81 44.6829C36.0497 44.2583 37.6031 44.2251 39.4664 44.3742C40.3968 44.4487 41.2704 44.5541 42.2298 44.6519C43.1408 44.7448 44.1131 44.8286 45.0306 44.8174L44.9694 39.8178C44.3579 39.8252 43.6283 39.7686 42.7369 39.6777C41.894 39.5918 40.865 39.4702 39.8652 39.3902C37.8679 39.2304 35.4503 39.1786 33.19 39.9526L34.81 44.6829ZM45.0306 44.8174C60.3737 44.6298 73.1665 41.9303 82.404 37.3411C91.6159 32.7648 97.6592 26.0896 98.5133 17.8787L93.5401 17.3614C92.9319 23.2087 88.5643 28.6978 80.1795 32.8633C71.8204 37.016 59.831 39.6361 44.9694 39.8178L45.0306 44.8174Z" fill="black"/>
<path d="M92 28.6191C101.913 32.1858 105 37.1192 111 45.1191" stroke="black" stroke-width="5"/>
<path d="M105.214 13.8047C101.371 13.6208 99.3987 14.7067 96.2141 18.8047" stroke="black" stroke-width="5" stroke-linecap="round"/>
<path d="M77.4803 38.4805C84.8448 49.5226 86.3997 57.5131 83.5001 72.62C71.5146 62.7257 63.5 58.62 63.5 42.1198" stroke="black" stroke-width="5"/>
</svg>
