<svg width="421" height="94" viewBox="0 0 421 94" fill="none" xmlns="http://www.w3.org/2000/svg">
<circle cx="151" cy="34" r="17" fill="#CC0001"/>
<circle cx="146" cy="28" r="6" fill="black"/>
<circle cx="145" cy="77" r="17" fill="#CC0001"/>
<circle cx="140" cy="71" r="6" fill="black"/>
<circle cx="120" cy="54" r="17" fill="#CC0001"/>
<circle cx="115" cy="48" r="6" fill="black"/>
<circle cx="47" cy="58" r="17" fill="#CC0001"/>
<circle cx="42" cy="52" r="6" fill="black"/>
<circle cx="41" cy="17" r="17" fill="#CC0001"/>
<circle cx="36" cy="11" r="6" fill="black"/>
<circle cx="18" cy="41" r="17" fill="#CC0001"/>
<circle cx="13" cy="35" r="6" fill="black"/>
<path d="M1 61.5C1 61.5 8 61.5 8.84657 59.6903C9.69315 57.8806 10.8597 55.8597 10.8597 55.8597" stroke="black" stroke-width="5"/>
<path d="M87.6846 0.0957321C86.3567 -0.282258 84.9737 0.487848 84.5957 1.81581C84.2177 3.14378 84.9878 4.52673 86.3158 4.90472L87.6846 0.0957321ZM96.0267 13.0009L93.5401 12.7423L93.5401 12.7423L96.0267 13.0009ZM45 37.6984L44.9694 35.1986L45 37.6984ZM98.5133 13.2596C98.8246 10.2669 98.2281 7.4324 96.2733 5.05401C94.3815 2.75219 91.4528 1.1683 87.6846 0.0957321L86.3158 4.90472C89.5745 5.83226 91.4169 7.01974 92.4105 8.22874C93.3412 9.36118 93.7445 10.777 93.5401 12.7423L98.5133 13.2596ZM34.81 40.0638C36.0497 39.6392 37.6031 39.606 39.4664 39.7551C40.3968 39.8295 41.2704 39.935 42.2298 40.0328C43.1408 40.1257 44.1131 40.2095 45.0306 40.1982L44.9694 35.1986C44.3579 35.2061 43.6283 35.1494 42.7369 35.0586C41.894 34.9726 40.865 34.851 39.8652 34.771C37.8679 34.6112 35.4503 34.5594 33.19 35.3335L34.81 40.0638ZM45.0306 40.1982C60.3737 40.0107 73.1665 37.3111 82.404 32.722C91.6159 28.1456 97.6592 21.4705 98.5133 13.2596L93.5401 12.7423C92.9319 18.5896 88.5643 24.0786 80.1795 28.2441C71.8204 32.3968 59.831 35.0169 44.9694 35.1986L45.0306 40.1982Z" fill="black"/>
<path d="M92 24C101.913 27.5667 105 32.5 111 40.5" stroke="black" stroke-width="5"/>
<path d="M105.214 9.18555C101.371 9.00164 99.3987 10.0875 96.2141 14.1855" stroke="black" stroke-width="5" stroke-linecap="round"/>
<path d="M77.4803 33.8614C84.8448 44.9034 86.3997 52.8939 83.5001 68.0008C71.5146 58.1066 63.5 54.0008 63.5 37.5006" stroke="black" stroke-width="5"/>
<path d="M81.6858 31.1538C87.9766 42.7833 87.8142 52.8462 103 53.5" stroke="black" stroke-width="5"/>
<path d="M152.92 59.6136L151.533 61.6937L155.694 64.4672L157.08 62.387L152.92 59.6136ZM190.999 87.9992C189.619 87.9992 188.499 89.1185 188.499 90.4992C188.499 91.8799 189.619 92.9992 190.999 92.9992L190.999 87.9992ZM198.999 74.5786L201.022 73.11L198.999 74.5786ZM156.323 59.8569L155.739 57.4261L156.323 59.8569ZM196.976 76.0472C198.133 77.6414 198.474 80.6774 197.381 83.4653C196.353 86.0879 194.26 87.9992 190.999 87.9992L190.999 92.9992C196.739 92.9992 200.425 89.402 202.037 85.2901C203.584 81.3437 203.425 76.4194 201.022 73.11L196.976 76.0472ZM157.08 62.387C157.166 62.2579 157.227 62.1766 157.268 62.1268C157.308 62.0777 157.316 62.0744 157.294 62.0942C157.268 62.117 157.213 62.1594 157.132 62.2019C157.05 62.2452 156.971 62.2724 156.907 62.2876L155.739 57.4261C154.3 57.772 153.488 58.761 152.92 59.6136L157.08 62.387ZM161.972 62.1083C170.397 61.0872 177.129 61.8671 182.709 64.1864C188.276 66.5001 192.898 70.4298 196.976 76.0472L201.022 73.11C196.523 66.9116 191.215 62.3069 184.628 59.5693C178.055 56.8372 170.411 56.0489 161.37 57.1446L161.972 62.1083ZM156.907 62.2876C157.431 62.1619 158.037 62.1438 158.924 62.165C159.715 62.1839 160.857 62.2434 161.972 62.1083L161.37 57.1446C160.712 57.2244 160.048 57.1904 159.043 57.1664C158.134 57.1447 156.952 57.1344 155.739 57.4261L156.907 62.2876Z" fill="black"/>
<path d="M178.547 59.7891C192.5 46 189 38.5 188.5 25.9988C176.048 34.0047 167 46.5 167 59.789" stroke="black" stroke-width="5"/>
<path d="M181.691 58.2331C190.695 46.6323 193.5 41 211 41.0003" stroke="black" stroke-width="5"/>
<path d="M195 67.5C202.652 68.4199 201 61.5 208.5 61.5" stroke="black" stroke-width="5" stroke-linecap="square"/>
<circle cx="361" cy="34" r="17" fill="#CC0001"/>
<circle cx="356" cy="28" r="6" fill="black"/>
<circle cx="355" cy="77" r="17" fill="#CC0001"/>
<circle cx="350" cy="71" r="6" fill="black"/>
<circle cx="330" cy="54" r="17" fill="#CC0001"/>
<circle cx="325" cy="48" r="6" fill="black"/>
<circle cx="257" cy="58" r="17" fill="#CC0001"/>
<circle cx="252" cy="52" r="6" fill="black"/>
<circle cx="251" cy="17" r="17" fill="#CC0001"/>
<circle cx="246" cy="11" r="6" fill="black"/>
<circle cx="228" cy="41" r="17" fill="#CC0001"/>
<circle cx="223" cy="35" r="6" fill="black"/>
<path d="M211 61.5C211 61.5 218 61.5 218.847 59.6903C219.693 57.8806 220.86 55.8597 220.86 55.8597" stroke="black" stroke-width="5"/>
<path d="M297.685 0.0957321C296.357 -0.282258 294.974 0.487848 294.596 1.81581C294.218 3.14378 294.988 4.52673 296.316 4.90472L297.685 0.0957321ZM306.027 13.0009L303.54 12.7423L303.54 12.7423L306.027 13.0009ZM255 37.6984L254.969 35.1986L255 37.6984ZM308.513 13.2596C308.825 10.2669 308.228 7.4324 306.273 5.05401C304.381 2.75219 301.453 1.1683 297.685 0.0957321L296.316 4.90472C299.574 5.83226 301.417 7.01974 302.411 8.22874C303.341 9.36118 303.745 10.777 303.54 12.7423L308.513 13.2596ZM244.81 40.0638C246.05 39.6392 247.603 39.606 249.466 39.7551C250.397 39.8295 251.27 39.935 252.23 40.0328C253.141 40.1257 254.113 40.2095 255.031 40.1982L254.969 35.1986C254.358 35.2061 253.628 35.1494 252.737 35.0586C251.894 34.9726 250.865 34.851 249.865 34.771C247.868 34.6112 245.45 34.5594 243.19 35.3335L244.81 40.0638ZM255.031 40.1982C270.374 40.0107 283.166 37.3111 292.404 32.722C301.616 28.1456 307.659 21.4705 308.513 13.2596L303.54 12.7423C302.932 18.5896 298.564 24.0786 290.179 28.2441C281.82 32.3968 269.831 35.0169 254.969 35.1986L255.031 40.1982Z" fill="black"/>
<path d="M302 24C311.913 27.5667 315 32.5 321 40.5" stroke="black" stroke-width="5"/>
<path d="M315.214 9.18555C311.371 9.00164 309.399 10.0875 306.214 14.1855" stroke="black" stroke-width="5" stroke-linecap="round"/>
<path d="M287.48 33.8614C294.845 44.9034 296.4 52.8939 293.5 68.0008C281.515 58.1066 273.5 54.0008 273.5 37.5006" stroke="black" stroke-width="5"/>
<path d="M291.686 31.1538C297.977 42.7833 297.814 52.8462 313 53.5" stroke="black" stroke-width="5"/>
<path d="M362.92 59.6136L361.533 61.6937L365.694 64.4672L367.08 62.387L362.92 59.6136ZM400.999 87.9992C399.619 87.9992 398.499 89.1185 398.499 90.4992C398.499 91.8799 399.619 92.9992 400.999 92.9992L400.999 87.9992ZM408.999 74.5786L411.022 73.11L408.999 74.5786ZM366.323 59.8569L365.739 57.4261L366.323 59.8569ZM406.976 76.0472C408.133 77.6414 408.474 80.6774 407.381 83.4653C406.353 86.0879 404.26 87.9992 400.999 87.9992L400.999 92.9992C406.739 92.9992 410.425 89.402 412.037 85.2901C413.584 81.3437 413.425 76.4194 411.022 73.11L406.976 76.0472ZM367.08 62.387C367.166 62.2579 367.227 62.1766 367.268 62.1268C367.308 62.0777 367.316 62.0744 367.294 62.0942C367.268 62.117 367.213 62.1594 367.132 62.2019C367.05 62.2452 366.971 62.2724 366.907 62.2876L365.739 57.4261C364.3 57.772 363.488 58.761 362.92 59.6136L367.08 62.387ZM371.972 62.1083C380.397 61.0872 387.129 61.8671 392.709 64.1864C398.276 66.5001 402.898 70.4298 406.976 76.0472L411.022 73.11C406.523 66.9116 401.215 62.3069 394.628 59.5693C388.055 56.8372 380.411 56.0489 371.37 57.1446L371.972 62.1083ZM366.907 62.2876C367.431 62.1619 368.037 62.1438 368.924 62.165C369.715 62.1839 370.857 62.2434 371.972 62.1083L371.37 57.1446C370.712 57.2244 370.048 57.1904 369.043 57.1664C368.134 57.1447 366.952 57.1344 365.739 57.4261L366.907 62.2876Z" fill="black"/>
<path d="M388.547 59.7891C402.5 46 399 38.5 398.5 25.9988C386.048 34.0047 377 46.5 377 59.789" stroke="black" stroke-width="5"/>
<path d="M391.691 58.2331C400.695 46.6323 403.5 41 421 41.0003" stroke="black" stroke-width="5"/>
<path d="M405 67.5C412.652 68.4199 411 61.5 418.5 61.5" stroke="black" stroke-width="5" stroke-linecap="square"/>
</svg>
