<svg width="50" height="50" viewBox="0 0 50 50" fill="none" xmlns="http://www.w3.org/2000/svg">
<path fill-rule="evenodd" clip-rule="evenodd" d="M34.9999 0C43.2842 0 49.9999 6.71572 49.9999 15V35.0001C49.9999 43.2843 43.2842 50.0001 34.9999 50.0001H14.9999C6.71566 50.0001 -6.60934e-05 43.2844 -6.60934e-05 35.0001V15C-6.60934e-05 6.71573 6.71566 0 14.9999 0H34.9999ZM25.0473 33.4525C20.7515 31.1339 18.2944 28.5973 16.2504 24.2392C16.9424 23.2634 17.7893 22.1989 18.8552 21.3394C19.764 20.6066 20.3359 19.4688 20.0831 18.3486C19.6229 16.3092 19.452 14.664 19.6125 12.3836C19.7146 10.9345 18.5767 9.65473 17.0802 9.66074L12.123 9.68066C11.3513 9.68376 10.6066 10.0284 10.2368 10.6857C7.8821 14.8707 8.97486 21.0649 10.5873 24.4271C10.6074 24.4689 10.6293 24.5098 10.6529 24.5496C12.8718 29.6932 17.0427 35.6937 24.605 39.4146L24.6061 39.4131C27.9847 41.2049 33.6686 42.6582 37.9253 41.0115C38.6421 40.7341 39.0841 40.058 39.1801 39.3148L39.7966 34.5407C39.9828 33.0995 38.8107 31.8493 37.3162 31.7733C34.9645 31.6537 33.3022 31.2912 31.2716 30.6025C30.1562 30.2242 28.9237 30.6384 28.0648 31.426C27.1382 32.2757 26.0564 32.926 25.0473 33.4525Z" fill="black"/>
</svg>
