<svg width="264" height="35" viewBox="0 0 264 35" fill="none" xmlns="http://www.w3.org/2000/svg">
<path fill-rule="evenodd" clip-rule="evenodd" d="M262.222 11.569C259.943 11.9837 257.643 12.4422 255.307 12.9082C253.147 13.3389 250.955 13.776 248.717 14.1908C242.287 15.3825 235.431 16.4005 227.72 16.5934C216.717 16.4068 207.508 14.6235 198.898 12.956L198.898 12.956C195.033 12.2076 191.289 11.4826 187.557 10.9358C175.526 9.17267 163.784 9.30709 149 16.6456L149.445 17.5413C163.997 10.3177 175.521 10.1826 187.412 11.9252C191.064 12.4604 194.766 13.1768 198.607 13.9203C207.258 15.5947 216.618 17.4063 227.714 17.5934L227.724 17.5936L227.735 17.5933C235.524 17.3992 242.441 16.371 248.899 15.174C251.167 14.7536 253.373 14.3137 255.539 13.8818C257.802 13.4303 260.022 12.9877 262.222 12.5853V11.569Z" fill="#2559B6"/>
<path d="M255.307 12.9082L255.502 13.8889L255.307 12.9082ZM262.222 11.569H263.222V10.3707L262.043 10.5852L262.222 11.569ZM248.717 14.1908L248.899 15.174L248.717 14.1908ZM227.72 16.5934L227.703 17.5932L227.724 17.5936L227.745 17.593L227.72 16.5934ZM198.898 12.956L198.699 13.9361L198.708 13.9378L198.898 12.956ZM198.898 12.956L199.097 11.976L199.088 11.9743L198.898 12.956ZM187.557 10.9358L187.412 11.9252L187.557 10.9358ZM149 16.6456L148.555 15.7499L147.66 16.1945L148.104 17.0902L149 16.6456ZM149.445 17.5413L148.549 17.9859L148.994 18.8817L149.889 18.437L149.445 17.5413ZM187.412 11.9252L187.557 10.9358L187.412 11.9252ZM198.607 13.9203L198.417 14.9021L198.607 13.9203ZM227.714 17.5934L227.697 18.5932L227.697 18.5932L227.714 17.5934ZM227.724 17.5936L227.707 18.5934L227.728 18.5938L227.749 18.5933L227.724 17.5936ZM227.735 17.5933L227.71 16.5936L227.71 16.5936L227.735 17.5933ZM248.899 15.174L248.717 14.1908L248.899 15.174ZM255.539 13.8818L255.343 12.9011L255.539 13.8818ZM262.222 12.5853L262.402 13.569L263.222 13.419V12.5853H262.222ZM255.502 13.8889C257.84 13.4226 260.131 12.9658 262.401 12.5529L262.043 10.5852C259.754 11.0017 257.446 11.4618 255.111 11.9275L255.502 13.8889ZM248.899 15.174C251.145 14.7578 253.343 14.3194 255.502 13.8889L255.111 11.9275C252.95 12.3584 250.765 12.7942 248.535 13.2075L248.899 15.174ZM227.745 17.593C235.53 17.3983 242.444 16.3705 248.899 15.174L248.535 13.2075C242.13 14.3945 235.332 15.4026 227.695 15.5937L227.745 17.593ZM198.708 13.9378C207.315 15.6047 216.603 17.405 227.703 17.5932L227.737 15.5935C216.832 15.4086 207.701 13.6422 199.088 11.9743L198.708 13.9378ZM198.699 13.936L198.699 13.936L199.097 11.976L199.097 11.976L198.699 13.936ZM187.412 11.9252C191.117 12.4682 194.839 13.1886 198.707 13.9378L199.088 11.9743C195.227 11.2267 191.46 10.4971 187.702 9.94637L187.412 11.9252ZM149.445 17.5413C163.997 10.3177 175.521 10.1826 187.412 11.9252L187.702 9.94637C175.531 8.16277 163.571 8.29652 148.555 15.7499L149.445 17.5413ZM150.34 17.0967L149.896 16.201L148.104 17.0902L148.549 17.9859L150.34 17.0967ZM187.557 10.9358C175.526 9.17267 163.784 9.30709 149 16.6456L149.889 18.437C164.211 11.3282 175.515 11.1925 187.267 12.9147L187.557 10.9358ZM198.797 12.9385C194.96 12.1959 191.236 11.4748 187.557 10.9358L187.267 12.9147C190.893 13.4459 194.571 14.1578 198.417 14.9021L198.797 12.9385ZM227.731 16.5935C216.732 16.4081 207.451 14.6135 198.797 12.9385L198.417 14.9021C207.065 16.5759 216.503 18.4045 227.697 18.5932L227.731 16.5935ZM227.741 16.5937L227.731 16.5935L227.697 18.5932L227.707 18.5934L227.741 16.5937ZM227.71 16.5936L227.699 16.5939L227.749 18.5933L227.76 18.593L227.71 16.5936ZM248.717 14.1908C242.284 15.383 235.425 16.4014 227.71 16.5936L227.76 18.593C235.623 18.3971 242.598 17.359 249.081 16.1573L248.717 14.1908ZM255.343 12.9011C253.177 13.3332 250.977 13.7718 248.717 14.1908L249.081 16.1573C251.357 15.7354 253.57 15.2942 255.734 14.8624L255.343 12.9011ZM262.042 11.6016C259.833 12.0057 257.605 12.4499 255.343 12.9011L255.734 14.8624C257.999 14.4107 260.211 13.9697 262.402 13.569L262.042 11.6016ZM263.222 12.5853V11.569H261.222V12.5853H263.222Z" fill="#2559B6"/>
<path fill-rule="evenodd" clip-rule="evenodd" d="M1.00001 11.569C3.27961 11.9837 5.57895 12.4422 7.91569 12.9082C10.0757 13.3389 12.2677 13.776 14.5055 14.1908C20.9353 15.3825 27.7914 16.4005 35.502 16.5934C46.505 16.4068 55.7142 14.6235 64.3247 12.956L64.3247 12.956C68.1894 12.2076 71.9334 11.4826 75.6649 10.9358C87.6964 9.17267 99.4383 9.30709 114.222 16.6456L113.778 17.5413C99.2251 10.3177 87.7018 10.1826 75.8099 11.9252C72.1581 12.4604 68.4565 13.1768 64.6151 13.9203C55.9643 15.5947 46.6044 17.4063 35.5085 17.5934L35.498 17.5936L35.4876 17.5933C27.6985 17.3992 20.7814 16.371 14.3233 15.174C12.0549 14.7536 9.84902 14.3137 7.68345 13.8818C5.41995 13.4303 3.20054 12.9877 1.00001 12.5853V11.569Z" fill="#2559B6"/>
<path d="M7.91569 12.9082L7.72013 13.8889L7.91569 12.9082ZM1.00001 11.569H7.62939e-06V10.3707L1.179 10.5852L1.00001 11.569ZM14.5055 14.1908L14.3233 15.174L14.5055 14.1908ZM35.502 16.5934L35.519 17.5932L35.498 17.5936L35.477 17.593L35.502 16.5934ZM64.3247 12.956L64.5238 13.9361L64.5148 13.9378L64.3247 12.956ZM64.3247 12.956L64.1257 11.976L64.1346 11.9743L64.3247 12.956ZM75.6649 10.9358L75.8099 11.9252L75.6649 10.9358ZM114.222 16.6456L114.667 15.7499L115.563 16.1945L115.118 17.0902L114.222 16.6456ZM113.778 17.5413L114.673 17.9859L114.229 18.8817L113.333 18.437L113.778 17.5413ZM75.8099 11.9252L75.6649 10.9358L75.8099 11.9252ZM64.6151 13.9203L64.8051 14.9021L64.6151 13.9203ZM35.5085 17.5934L35.5253 18.5932L35.5253 18.5932L35.5085 17.5934ZM35.498 17.5936L35.5149 18.5934L35.494 18.5938L35.4731 18.5933L35.498 17.5936ZM35.4876 17.5933L35.5125 16.5936L35.5125 16.5936L35.4876 17.5933ZM14.3233 15.174L14.5055 14.1908L14.3233 15.174ZM7.68345 13.8818L7.87904 12.9011L7.68345 13.8818ZM1.00001 12.5853L0.820145 13.569L7.62939e-06 13.419V12.5853H1.00001ZM7.72013 13.8889C5.3819 13.4226 3.0909 12.9658 0.821014 12.5529L1.179 10.5852C3.46832 11.0017 5.77599 11.4618 8.11124 11.9275L7.72013 13.8889ZM14.3233 15.174C12.0777 14.7578 9.87916 14.3194 7.72013 13.8889L8.11124 11.9275C10.2723 12.3584 12.4577 12.7942 14.6878 13.2075L14.3233 15.174ZM35.477 17.593C27.6922 17.3983 20.7785 16.3705 14.3233 15.174L14.6878 13.2075C21.0921 14.3945 27.8905 15.4026 35.527 15.5937L35.477 17.593ZM64.5148 13.9378C55.907 15.6047 46.6194 17.405 35.519 17.5932L35.4851 15.5935C46.3905 15.4086 55.5214 13.6422 64.1346 11.9743L64.5148 13.9378ZM64.5238 13.936L64.5238 13.936L64.1256 11.976L64.1257 11.976L64.5238 13.936ZM75.8099 11.9252C72.1049 12.4682 68.3836 13.1886 64.5149 13.9378L64.1346 11.9743C67.9951 11.2267 71.7619 10.4971 75.5199 9.94637L75.8099 11.9252ZM113.778 17.5413C99.2251 10.3177 87.7018 10.1826 75.8099 11.9252L75.5199 9.94637C87.6911 8.16277 99.6516 8.29652 114.667 15.7499L113.778 17.5413ZM112.882 17.0967L113.327 16.201L115.118 17.0902L114.673 17.9859L112.882 17.0967ZM75.6649 10.9358C87.6964 9.17267 99.4383 9.30709 114.222 16.6456L113.333 18.437C99.0118 11.3282 87.7071 11.1925 75.9549 12.9147L75.6649 10.9358ZM64.4251 12.9385C68.2622 12.1959 71.9866 11.4748 75.6649 10.9358L75.9549 12.9147C72.3297 13.4459 68.6509 14.1578 64.8051 14.9021L64.4251 12.9385ZM35.4916 16.5935C46.4899 16.4081 55.7713 14.6135 64.4251 12.9385L64.8051 14.9021C56.1572 16.5759 46.7189 18.4045 35.5253 18.5932L35.4916 16.5935ZM35.4812 16.5937L35.4916 16.5935L35.5253 18.5932L35.5149 18.5934L35.4812 16.5937ZM35.5125 16.5936L35.523 16.5939L35.4731 18.5933L35.4626 18.593L35.5125 16.5936ZM14.5055 14.1908C20.9382 15.383 27.7976 16.4014 35.5125 16.5936L35.4627 18.593C27.5993 18.3971 20.6246 17.359 14.1411 16.1573L14.5055 14.1908ZM7.87904 12.9011C10.0456 13.3332 12.2449 13.7718 14.5055 14.1908L14.1411 16.1573C11.865 15.7354 9.65247 15.2942 7.48785 14.8624L7.87904 12.9011ZM1.17987 11.6016C3.38963 12.0057 5.61696 12.4499 7.87904 12.9011L7.48785 14.8624C5.22295 14.4107 3.01145 13.9697 0.820145 13.569L1.17987 11.6016ZM7.62939e-06 12.5853V11.569H2.00001V12.5853H7.62939e-06Z" fill="#2559B6"/>
<path d="M125.883 11.8829H137.067V22.3679H125.883V11.8829Z" fill="#F8D849"/>
<path fill-rule="evenodd" clip-rule="evenodd" d="M139.326 17.4892C139.649 17.4943 139.963 17.4988 140.263 17.4988C145.088 17.4988 149 21.4107 149 26.2362C149 28.3634 147.253 30.7797 144.806 30.4302C145.505 32.8767 142.961 34.9737 140.263 34.9737C135.437 34.9737 131.525 31.0618 131.525 26.2362C131.525 25.8474 131.514 25.4244 131.502 24.9822C131.499 24.8869 131.497 24.7903 131.494 24.6933C131.492 24.869 131.489 25.0428 131.486 25.2143C131.481 25.577 131.475 25.9288 131.475 26.2625C131.475 31.0881 127.563 35 122.737 35C120.61 35 118.194 33.2525 118.543 30.806C116.097 31.505 114 28.961 114 26.2625C114 21.437 117.912 17.5251 122.737 17.5251C123.126 17.5251 123.55 17.5136 123.992 17.5017C124.09 17.499 124.189 17.4964 124.289 17.4938C124.204 17.4927 124.12 17.4915 124.037 17.4902C123.953 17.4889 123.869 17.4876 123.786 17.4863L123.785 17.4863C123.422 17.4805 123.071 17.4749 122.737 17.4749C117.912 17.4749 114 13.563 114 8.73746C114 6.61033 115.747 4.19398 118.194 4.54348C117.495 2.09699 120.039 0 122.737 0C127.563 0 131.475 3.9119 131.475 8.73746C131.475 9.02723 131.481 9.33599 131.489 9.65748C131.494 9.34001 131.499 9.03176 131.499 8.73746C131.499 3.9119 135.411 0 140.236 0C142.363 0 144.78 1.74749 144.43 4.19398C146.877 3.49498 148.974 6.03902 148.974 8.73746C148.974 13.563 145.062 17.4749 140.236 17.4749C139.949 17.4749 139.644 17.4811 139.326 17.4892ZM131.509 12.3562C131.451 13.831 131.208 15.235 130.426 16.0769C129.458 17.1201 127.767 17.4121 126.021 17.4804C127.616 17.5155 129.171 17.7333 130.077 18.5736C131.118 19.5398 131.411 21.2271 131.48 22.9699C131.514 21.3692 131.73 19.8056 132.574 18.8968C133.477 17.9227 135.012 17.6035 136.633 17.5099C135.153 17.4526 133.742 17.2104 132.897 16.4264C131.921 15.5206 131.602 13.9811 131.509 12.3562Z" fill="#2559B6"/>
</svg>
