<svg width="50" height="50" viewBox="0 0 50 50" fill="none" xmlns="http://www.w3.org/2000/svg">
<path fill-rule="evenodd" clip-rule="evenodd" d="M15 0C6.71573 0 0 6.71573 0 15V35C0 43.2843 6.71573 50 15 50H35C43.2843 50 50 43.2843 50 35V15C50 6.71573 43.2843 0 35 0H15ZM25 14.759H30.1205C31.1389 14.759 31.7269 14.9743 32.1573 15.1318C32.2361 15.1606 32.3096 15.1875 32.3795 15.2108C32.5052 15.2737 32.6244 15.33 32.7384 15.3839C33.1705 15.588 33.528 15.7569 33.8855 16.1145C34.3374 16.5663 34.6386 17.0181 34.7892 17.6205C34.9398 18.0723 35.0904 18.6747 35.241 19.8795V25V30.1205C35.241 31.1389 35.0257 31.7269 34.8682 32.1574C34.8394 32.2361 34.8125 32.3096 34.7892 32.3795C34.7263 32.5053 34.67 32.6244 34.6161 32.7384C34.412 33.1705 34.2431 33.528 33.8855 33.8855C33.4337 34.3374 32.9819 34.6386 32.3795 34.7892C31.9277 34.9398 31.3253 35.0904 30.1205 35.241H25H19.8795C18.8611 35.241 18.2731 35.0257 17.8426 34.8682C17.7639 34.8394 17.6904 34.8125 17.6205 34.7892C17.4948 34.7263 17.3756 34.67 17.2616 34.6161C16.8295 34.412 16.472 34.2431 16.1145 33.8855C15.6627 33.4337 15.3614 32.9819 15.2108 32.3795C15.0602 31.9277 14.9096 31.3253 14.759 30.1205V25V19.8795C14.759 18.8611 14.9743 18.2731 15.1318 17.8427C15.1606 17.7639 15.1875 17.6904 15.2108 17.6205C15.2737 17.4948 15.33 17.3757 15.3838 17.2618L15.3838 17.2617L15.3838 17.2617L15.3839 17.2616C15.588 16.8295 15.7569 16.472 16.1145 16.1145C16.5663 15.6627 17.0181 15.3614 17.6205 15.2108C18.0723 15.0602 18.6747 14.9096 19.8795 14.759H25ZM25 12.5H19.8795C18.5241 12.5 17.6205 12.8012 16.8675 13.1024C16.1145 13.4036 15.3614 13.8554 14.6084 14.6084C13.8554 15.3614 13.5542 15.9639 13.1024 16.8675C12.8012 17.6205 12.6506 18.5241 12.5 19.8795V25V30.1205C12.5 31.4759 12.8012 32.3795 13.1024 33.1325C13.4036 33.8855 13.8554 34.6386 14.6084 35.3916C15.3614 36.1446 15.9639 36.4458 16.8675 36.8976C17.6205 37.1988 18.5241 37.3494 19.8795 37.5H25H30.1205C31.4759 37.5 32.3795 37.1988 33.1325 36.8976C33.8855 36.5964 34.6386 36.1446 35.3916 35.3916C36.1446 34.6386 36.4458 34.0361 36.8976 33.1325C37.1988 32.3795 37.3494 31.4759 37.5 30.1205V25V19.8795C37.5 18.5241 37.1988 17.6205 36.8976 16.8675C36.5964 16.1145 36.1446 15.3614 35.3916 14.6084C34.6386 13.8554 34.0361 13.5542 33.1325 13.1024C32.3795 12.8012 31.4759 12.6506 30.1205 12.5H25ZM25 18.5241C21.3855 18.5241 18.5241 21.3855 18.5241 25C18.5241 28.6145 21.3855 31.4759 25 31.4759C28.6145 31.4759 31.4759 28.6145 31.4759 25C31.4759 21.3855 28.6145 18.5241 25 18.5241ZM25 29.2169C22.741 29.2169 20.7831 27.4096 20.7831 25C20.7831 22.741 22.5904 20.7831 25 20.7831C27.259 20.7831 29.2169 22.5904 29.2169 25C29.2169 27.259 27.259 29.2169 25 29.2169ZM33.1325 18.3735C33.1325 19.2052 32.4583 19.8795 31.6265 19.8795C30.7948 19.8795 30.1205 19.2052 30.1205 18.3735C30.1205 17.5417 30.7948 16.8675 31.6265 16.8675C32.4583 16.8675 33.1325 17.5417 33.1325 18.3735Z" fill="black"/>
</svg>
