<svg width="50" height="50" viewBox="0 0 50 50" fill="none" xmlns="http://www.w3.org/2000/svg">
<path fill-rule="evenodd" clip-rule="evenodd" d="M15 0C6.71573 0 0 6.71573 0 15V35C0 43.2843 6.71573 50 15 50H35C43.2843 50 50 43.2843 50 35V15C50 6.71573 43.2843 0 35 0H15ZM39.4472 14.6539C38.9449 14.0138 38.1466 13.6 37.2477 13.6H12.7523C11.757 13.6 10.8852 14.1072 10.4018 14.8672L24.8595 26.4022L39.4472 14.6539ZM10 16.9519V33.1571C10 33.2693 10.0073 33.3797 10.0214 33.4882L20.3738 25.2286L10 16.9519ZM12.7523 35.8C12.0624 35.8 11.4318 35.5563 10.9487 35.1536L21.8811 26.4312L23.8933 28.0366C24.4561 28.4856 25.2729 28.4838 25.8335 28.0323L27.8158 26.4358L38.8392 35.3136C38.3899 35.6199 37.8407 35.8 37.2477 35.8H12.7523ZM39.9248 33.7734L29.3149 25.2286L40 16.6232V33.1571C40 33.3693 39.974 33.5757 39.9248 33.7734Z" fill="black"/>
</svg>
